<svg width="64" height="64" viewBox="0 0 64 64" fill="none" xmlns="http://www.w3.org/2000/svg">
<path d="M32 5.33337C17.28 5.33337 5.33331 17.28 5.33331 32C5.33331 46.72 17.28 58.6667 32 58.6667C46.72 58.6667 58.6666 46.72 58.6666 32C58.6666 17.28 46.72 5.33337 32 5.33337ZM32 13.3334C36.4266 13.3334 40 16.9067 40 21.3334C40 25.76 36.4266 29.3334 32 29.3334C27.5733 29.3334 24 25.76 24 21.3334C24 16.9067 27.5733 13.3334 32 13.3334ZM32 51.2C25.3333 51.2 19.44 47.7867 16 42.6134C16.08 37.3067 26.6666 34.4 32 34.4C37.3066 34.4 47.92 37.3067 48 42.6134C44.56 47.7867 38.6666 51.2 32 51.2Z" fill="#BFBFBF"/>
</svg>
